<?xml version="1.0" standalone="no"?>
<!DOCTYPE svg PUBLIC "-//W3C//DTD SVG 20010904//EN"
 "http://www.w3.org/TR/2001/REC-SVG-20010904/DTD/svg10.dtd">
<svg version="1.0" xmlns="http://www.w3.org/2000/svg"
 width="300.000000pt" height="300.000000pt" viewBox="0 0 300.000000 300.000000"
 preserveAspectRatio="xMidYMid meet">
<metadata>
Created by potrace 1.16, written by Peter Selinger 2001-2019
</metadata>
<g transform="translate(0.000000,300.000000) scale(0.100000,-0.100000)"
fill="#000000" stroke="none">
<path d="M980 2435 c-267 -156 -493 -294 -502 -306 -17 -20 -18 -64 -18 -623
l0 -602 28 -26 c15 -14 241 -151 502 -304 431 -252 479 -278 520 -278 41 0 88
25 520 277 261 153 487 291 503 308 l27 29 0 600 0 599 -22 25 c-13 13 -240
151 -506 305 -430 251 -487 281 -525 280 -37 0 -104 -36 -527 -284z m563 4
c118 -61 737 -427 755 -446 l22 -24 0 -405 c0 -222 -2 -404 -5 -404 -2 0 -185
110 -405 245 l-401 245 -400 -245 c-220 -135 -402 -245 -404 -245 -3 0 -5 182
-5 404 0 370 1 406 18 425 19 24 769 461 790 461 7 0 23 -5 35 -11z m-17
-1084 c3 -8 151 -103 329 -212 l322 -197 -321 -188 c-183 -107 -332 -188 -346
-188 -15 0 -154 75 -330 178 -168 98 -313 183 -322 188 -13 7 51 50 307 207
178 108 326 204 329 212 7 19 25 19 32 0z"/>
</g>
</svg>
